<?xml version="1.0" standalone="no"?>
<!DOCTYPE svg PUBLIC "-//W3C//DTD SVG 20010904//EN"
 "http://www.w3.org/TR/2001/REC-SVG-20010904/DTD/svg10.dtd">
<svg version="1.0" xmlns="http://www.w3.org/2000/svg"
 width="1858.000000pt" height="441.000000pt" viewBox="0 0 1858.000000 441.000000"
 preserveAspectRatio="xMidYMid meet">

<g transform="translate(0.000000,441.000000) scale(0.100000,-0.100000)"
fill="#000000" stroke="none">
<path d="M2004 4359 c-319 -28 -701 -161 -967 -335 -149 -97 -209 -145 -336
-269 -392 -381 -608 -845 -652 -1397 -18 -229 9 -502 72 -734 75 -275 235
-579 421 -799 325 -385 744 -633 1253 -742 125 -27 141 -28 410 -28 267 1 286
2 408 28 693 148 1239 571 1538 1192 151 313 218 640 206 1005 -8 240 -41 424
-115 640 -197 573 -652 1054 -1217 1283 -246 101 -439 143 -715 157 -107 5
-199 9 -205 8 -5 0 -51 -4 -101 -9z m586 -147 c372 -80 676 -229 954 -467 77
-65 265 -272 321 -352 193 -275 317 -592 360 -922 19 -136 19 -396 0 -532 -46
-350 -179 -674 -396 -964 -99 -133 -340 -364 -474 -453 -223 -149 -491 -262
-755 -317 -173 -37 -489 -46 -672 -20 -678 95 -1250 508 -1554 1120 -285 575
-283 1234 6 1815 201 405 511 711 925 916 217 108 497 188 708 202 154 11 469
-3 577 -26z"/>
<path d="M2045 3684 c-141 -23 -242 -71 -313 -149 -43 -47 -56 -71 -78 -141
-28 -95 -28 -94 -158 -159 -68 -34 -85 -48 -110 -88 -40 -65 -45 -156 -17
-292 21 -102 87 -324 100 -338 5 -4 11 54 14 130 6 148 22 224 62 303 77 151
187 191 388 139 97 -25 227 -22 341 9 l70 18 120 -62 c134 -68 281 -129 339
-140 47 -8 52 -19 61 -147 4 -54 13 -134 20 -178 12 -75 8 -98 -13 -84 -5 3
-17 27 -26 54 -39 118 -119 181 -241 189 -119 7 -203 -36 -260 -134 l-26 -44
-30 25 c-37 31 -98 33 -153 5 l-40 -21 -15 23 c-8 13 -32 42 -53 65 -135 148
-376 99 -452 -92 -16 -40 -32 -64 -49 -73 -32 -16 -33 -30 -3 -41 15 -6 30
-26 42 -58 60 -159 202 -229 364 -176 91 29 144 98 176 231 25 106 75 143 144
107 31 -15 45 -43 61 -120 15 -68 57 -141 101 -176 147 -117 366 -54 431 124
15 41 28 61 44 67 26 10 32 28 89 275 20 88 46 180 58 204 20 43 20 46 3 95
-72 211 -226 416 -394 527 -80 52 -156 81 -277 104 -84 16 -268 27 -320 19z
m-144 -985 c85 -29 146 -109 156 -203 13 -126 -98 -244 -233 -246 -53 0 -135
41 -170 87 -77 101 -71 217 16 303 64 65 149 86 231 59z m740 0 c123 -27 204
-185 155 -303 -37 -89 -140 -153 -227 -143 -152 18 -258 175 -205 301 20 49
85 116 131 137 47 22 75 23 146 8z"/>
<path d="M1637 2033 c-14 -13 -6 -49 22 -109 35 -75 87 -129 155 -160 73 -34
194 -34 296 1 89 30 113 31 184 5 202 -76 377 -20 461 148 26 52 31 112 9 119
-5 2 -38 -19 -72 -46 -88 -71 -104 -72 -215 -17 -102 51 -138 56 -218 30 -47
-16 -54 -16 -109 1 -79 24 -133 17 -206 -29 -93 -57 -160 -50 -232 23 -39 39
-61 49 -75 34z"/>
<path d="M1753 1301 c-18 -11 -42 -40 -54 -63 -20 -38 -22 -60 -24 -203 -1
-91 2 -177 8 -199 14 -50 75 -116 108 -116 63 1 236 100 314 179 36 38 43 41
93 41 52 0 56 -2 120 -61 92 -84 145 -119 214 -141 76 -23 93 -23 129 3 58 41
63 64 60 279 -2 188 -3 197 -27 238 -14 24 -37 48 -52 53 -71 27 -215 -35
-311 -136 -77 -80 -92 -88 -141 -80 -28 5 -58 25 -118 79 -137 123 -252 169
-319 127z"/>
<path d="M5090 3441 c-169 -32 -357 -149 -457 -284 -102 -139 -138 -268 -138
-492 1 -77 4 -158 9 -180 13 -67 65 -187 101 -237 70 -96 116 -99 173 -13 51
78 51 90 4 138 -23 23 -50 62 -61 87 -81 184 -32 476 104 628 87 97 202 149
375 171 145 19 274 -11 376 -87 86 -63 145 -189 146 -312 0 -130 -41 -226
-139 -322 -46 -44 -154 -108 -184 -108 -14 0 -119 -36 -124 -42 -21 -26 -23
-50 -9 -92 18 -52 32 -62 95 -72 95 -15 222 -82 253 -135 23 -40 46 -117 46
-159 0 -90 -58 -190 -137 -237 -41 -24 -58 -28 -120 -27 -117 2 -172 33 -197
113 -20 63 -36 341 -36 617 0 330 -16 592 -39 624 -22 31 -93 53 -135 42 l-31
-8 -3 -370 c-4 -424 11 -818 34 -914 26 -113 76 -176 184 -230 210 -107 508
-36 615 145 41 70 58 140 58 240 0 178 -63 296 -190 360 -29 14 -53 29 -53 34
0 4 32 34 71 66 181 151 232 258 231 485 0 116 -4 145 -25 207 -34 100 -66
151 -136 216 -67 61 -155 109 -246 133 -69 18 -346 28 -415 15z"/>
<path d="M12525 3420 c-271 -45 -517 -281 -658 -630 -121 -301 -127 -674 -16
-917 10 -24 19 -45 19 -47 0 -17 76 -129 115 -168 100 -103 192 -147 325 -155
159 -10 339 35 464 117 73 48 126 101 126 126 0 30 -42 102 -66 113 -29 13
-47 6 -109 -44 -61 -50 -153 -94 -238 -114 -214 -51 -387 56 -462 284 -43 130
-57 367 -30 505 56 289 145 466 314 622 149 138 320 173 400 82 62 -70 48
-178 -36 -289 -108 -142 -264 -225 -423 -225 -85 0 -103 -10 -103 -58 0 -42
33 -101 66 -118 26 -14 40 -14 110 -4 173 27 323 106 457 240 101 101 146 180
161 285 24 167 -32 305 -150 369 -43 23 -68 29 -134 32 -45 1 -104 -1 -132 -6z"/>
<path d="M13245 3345 c-47 -16 -104 -77 -134 -141 -34 -71 -40 -196 -41 -750
0 -522 9 -703 37 -759 33 -64 75 -105 138 -135 115 -55 233 -33 356 65 34 28
68 54 74 59 9 7 22 -2 44 -26 43 -49 120 -97 183 -114 126 -33 241 -4 344 87
52 46 75 59 107 63 100 12 253 23 264 19 6 -3 18 -22 27 -43 56 -140 196 -178
359 -97 41 20 79 37 83 37 5 0 16 -13 26 -29 20 -37 85 -59 126 -45 33 12 38
37 47 254 6 169 21 297 37 339 55 139 134 258 191 287 78 41 88 -1 107 -451
12 -284 21 -339 56 -376 30 -31 100 -59 149 -59 49 0 117 24 183 64 33 20 65
36 72 36 7 0 32 -18 55 -39 80 -74 203 -78 309 -11 57 37 71 37 92 4 21 -31
64 -54 103 -54 56 0 62 24 72 268 8 226 14 271 48 367 40 112 145 246 207 261
53 13 58 -5 65 -234 4 -114 8 -281 8 -370 l1 -164 46 -44 c26 -24 67 -53 91
-65 83 -40 202 -12 285 67 41 38 50 41 69 18 7 -8 36 -27 63 -42 44 -22 64
-26 141 -27 79 0 97 3 147 28 32 16 62 26 68 22 6 -3 10 -48 10 -103 0 -114
-5 -126 -105 -228 -147 -151 -192 -232 -216 -387 -18 -119 4 -205 73 -279 67
-73 168 -98 252 -63 55 23 121 89 145 145 26 61 40 222 41 464 l0 168 76 81
c137 146 239 302 283 434 27 80 27 133 0 167 -45 57 -87 21 -173 -154 -107
-214 -154 -286 -174 -265 -6 6 -12 146 -14 350 -5 361 -8 383 -53 403 -40 18
-89 24 -117 13 l-27 -10 6 -159 c9 -234 -16 -341 -99 -424 -31 -31 -45 -38
-78 -38 -114 0 -161 90 -140 269 14 116 29 170 66 240 74 137 225 231 371 231
47 0 64 4 78 20 16 18 17 25 6 60 -16 52 -50 70 -137 70 -181 0 -374 -108
-471 -263 -79 -126 -108 -232 -129 -469 -7 -81 -37 -145 -83 -176 -40 -26 -48
-25 -74 11 -31 41 -47 177 -47 417 0 388 -29 450 -206 450 -64 0 -84 -4 -119
-24 -38 -23 -105 -92 -162 -170 l-23 -30 0 52 c0 70 -24 127 -59 142 -16 6
-50 10 -77 8 l-49 -3 -7 -255 c-4 -140 -11 -292 -16 -338 -15 -126 -80 -242
-153 -272 -71 -30 -82 21 -99 490 -6 151 -13 289 -16 307 -10 54 -37 73 -104
73 -38 0 -60 -4 -63 -12 -2 -7 -2 -107 1 -221 5 -226 -5 -338 -40 -442 -29
-84 -44 -111 -90 -161 -46 -50 -79 -57 -102 -21 -16 26 -36 279 -36 459 0 158
-18 309 -41 348 -32 52 -74 70 -162 70 -114 0 -166 -31 -256 -154 -23 -31 -44
-56 -46 -56 -3 0 -5 52 -5 115 l0 114 34 35 c35 34 60 99 54 139 -2 17 -11 23
-35 25 -17 2 -36 9 -42 15 -5 7 -13 105 -17 221 -5 155 -11 211 -21 221 -25
25 -120 50 -151 39 -25 -9 -27 -14 -24 -54 1 -25 5 -136 8 -248 l6 -203 -144
3 -143 3 -5 230 c-6 241 -11 272 -52 299 -29 19 -99 30 -133 22 l-26 -7 7
-274 7 -275 -117 0 c-128 0 -156 -8 -156 -45 0 -75 51 -108 175 -115 l90 -5 3
-342 2 -341 -57 -51 c-57 -51 -116 -77 -147 -65 -15 6 -16 23 -10 169 11 255
-17 382 -105 478 -52 56 -103 74 -157 57 -114 -36 -182 -196 -155 -366 22
-138 62 -234 136 -324 25 -30 45 -58 45 -61 0 -9 -80 -72 -112 -88 -24 -12
-34 -12 -70 0 -61 20 -104 62 -129 127 -19 49 -23 77 -23 197 -1 189 13 240
112 415 18 30 32 61 32 68 0 20 -43 80 -67 93 -44 24 -104 -37 -181 -182 -60
-112 -79 -181 -92 -330 -7 -74 -18 -161 -26 -193 -22 -98 -81 -167 -166 -197
-36 -12 -40 -11 -80 18 -97 70 -111 178 -50 368 5 17 33 89 61 160 49 123 94
258 111 335 53 239 67 380 50 513 -7 56 -19 115 -26 133 -18 42 -60 91 -93
108 -43 22 -121 27 -166 11z m104 -198 c17 -36 21 -62 21 -153 0 -185 -43
-491 -75 -536 -10 -16 -14 25 -20 250 -7 274 -1 447 17 470 19 22 36 13 57
-31z m1736 -528 c15 -14 19 -427 6 -548 -7 -58 -16 -117 -20 -131 -5 -14 -15
-45 -22 -70 -26 -88 -69 -149 -120 -170 -26 -11 -33 -10 -63 13 -21 17 -36 38
-40 59 -9 44 -20 832 -13 853 6 13 23 15 134 9 71 -4 132 -10 138 -15z m-902
-258 c38 -64 51 -352 16 -359 -34 -6 -83 156 -83 279 -1 105 30 142 67 80z
m3773 -1278 c7 -84 0 -271 -14 -317 -4 -16 -19 -38 -33 -48 -101 -75 -123 192
-30 355 34 61 53 87 61 87 5 0 12 -35 16 -77z"/>
<path d="M9934 3269 c3 -34 6 -154 6 -265 l0 -204 54 0 c38 0 61 6 77 19 24
19 24 21 27 251 2 167 0 236 -9 246 -8 10 -34 14 -87 14 l-75 0 7 -61z"/>
<path d="M9396 3297 c-16 -12 -17 -19 -7 -72 16 -86 15 -600 -1 -612 -7 -5
-40 -20 -73 -33 -151 -58 -278 -152 -342 -253 -62 -98 -103 -243 -103 -362 0
-157 -79 -283 -164 -261 -12 3 -28 18 -36 33 -15 33 -28 293 -29 580 -1 188
-2 192 -25 220 -22 25 -31 28 -88 28 l-63 0 -6 -270 c-7 -267 -12 -313 -44
-410 -35 -104 -77 -161 -134 -185 -24 -9 -35 -9 -60 5 -94 48 -94 168 0 559
34 140 36 189 10 232 -31 51 -89 71 -226 79 l-120 6 -38 45 c-43 49 -112 94
-146 94 -62 0 -121 -61 -121 -124 0 -41 3 -48 82 -165 22 -32 22 -76 3 -241
-20 -179 -38 -256 -79 -346 -36 -79 -72 -123 -112 -140 -30 -13 -38 -12 -64 1
-53 27 -64 56 -63 166 0 54 6 122 12 151 6 29 17 78 23 108 6 30 24 106 40
168 15 62 28 123 28 135 0 29 -46 93 -85 117 -25 16 -50 20 -116 20 -114 1
-162 12 -204 46 -20 16 -54 44 -76 62 -22 17 -52 35 -65 38 -67 17 -162 -75
-143 -138 9 -32 44 -84 92 -135 l29 -31 -16 -142 c-33 -287 -73 -408 -165
-500 -47 -47 -66 -58 -113 -69 -68 -17 -121 -11 -183 20 -52 26 -128 96 -122
113 1 6 38 34 82 63 188 124 285 277 285 451 0 120 -62 222 -145 238 -59 11
-177 0 -220 -21 -92 -45 -191 -190 -234 -345 -29 -103 -29 -253 0 -346 53
-175 164 -285 334 -330 151 -41 322 7 448 126 128 120 156 213 211 700 2 21
187 28 204 7 8 -9 2 -40 -23 -121 -51 -161 -67 -259 -67 -423 0 -122 2 -147
19 -175 24 -41 103 -102 153 -117 47 -14 130 -14 167 0 70 26 181 137 225 224
58 113 116 378 121 550 l2 70 96 3 c77 2 100 0 113 -13 11 -12 13 -22 6 -38
-17 -40 -68 -230 -86 -322 -22 -109 -24 -265 -5 -319 21 -60 84 -122 147 -146
102 -38 212 -18 303 55 24 19 47 35 51 35 4 0 25 -16 46 -35 111 -99 249 -98
364 5 25 21 49 40 53 40 4 0 22 -14 40 -30 106 -101 288 -118 405 -39 53 36
64 36 110 1 70 -54 182 -68 261 -32 60 27 160 134 199 211 39 78 66 180 57
218 -9 42 -37 63 -77 59 -39 -4 -54 -29 -90 -147 -28 -94 -72 -161 -121 -184
-42 -20 -64 -13 -90 26 -31 48 -37 170 -37 770 0 617 -7 753 -38 772 -20 12
-100 35 -123 35 -8 0 -23 -6 -33 -13z m-2976 -887 c22 -17 25 -26 25 -87 0
-57 -6 -80 -36 -143 -37 -78 -115 -165 -147 -165 -13 0 -18 11 -20 50 -9 127
49 319 105 349 36 20 43 19 73 -4z m2971 -2 c8 -14 13 -119 17 -313 l5 -291
-42 -36 c-23 -20 -62 -46 -86 -59 l-45 -24 -44 23 c-24 13 -57 37 -72 53 l-29
30 0 192 c0 182 1 194 23 237 30 56 125 149 189 183 59 32 69 33 84 5z"/>
<path d="M8545 3135 c-38 -17 -78 -60 -95 -103 -17 -42 1 -110 39 -145 81 -75
193 -52 240 49 37 77 7 155 -74 193 -51 24 -68 25 -110 6z"/>
<path d="M16128 3121 c-53 -34 -78 -74 -78 -126 0 -63 41 -119 108 -145 61
-24 147 13 177 77 38 80 8 165 -72 203 -57 27 -81 25 -135 -9z"/>
<path d="M10605 2707 c-48 -28 -106 -81 -135 -125 -29 -43 -31 -51 -24 -97 14
-100 8 -147 -33 -275 -58 -183 -68 -231 -53 -261 28 -52 73 -63 108 -26 22 24
49 87 90 212 37 112 45 116 108 51 74 -77 114 -174 114 -281 0 -92 -29 -148
-78 -153 -31 -3 -127 25 -186 55 -40 20 -192 73 -211 73 -30 0 -55 -38 -55
-85 0 -118 92 -208 255 -251 93 -25 155 -18 280 30 62 25 144 52 182 61 171
41 337 172 359 284 7 34 -24 94 -57 112 -28 15 -46 1 -98 -77 -53 -79 -142
-157 -175 -152 -19 3 -22 11 -28 83 -3 44 -10 96 -16 116 -14 53 -75 163 -140
254 -109 151 -107 148 -93 224 25 126 25 162 -1 201 -19 28 -31 35 -58 37 -19
1 -44 -4 -55 -10z"/>
</g>
</svg>
