<?xml version="1.0" standalone="no"?>
<!DOCTYPE svg PUBLIC "-//W3C//DTD SVG 20010904//EN"
 "http://www.w3.org/TR/2001/REC-SVG-20010904/DTD/svg10.dtd">
<svg version="1.0" xmlns="http://www.w3.org/2000/svg"
 width="692.000000pt" height="605.000000pt" viewBox="0 0 692.000000 605.000000"
 preserveAspectRatio="xMidYMid meet">

<g transform="translate(0.000000,605.000000) scale(0.100000,-0.100000)"
fill="#000000" stroke="none">
<path d="M3270 5999 c-681 -75 -1263 -438 -1625 -1014 -349 -554 -420 -1272
-189 -1892 159 -426 446 -789 828 -1044 274 -184 597 -305 936 -350 134 -18
430 -15 565 5 627 96 1161 435 1502 952 236 360 355 757 355 1189 0 565 -211
1093 -596 1493 -333 346 -744 562 -1221 643 -140 23 -425 33 -555 18z m530
-134 c356 -59 695 -210 970 -432 96 -78 268 -256 343 -355 386 -515 509 -1181
332 -1799 -66 -228 -183 -463 -333 -664 -84 -114 -281 -311 -395 -397 -633
-471 -1455 -545 -2157 -193 -475 239 -849 672 -1014 1177 -142 430 -142 861 0
1288 251 759 909 1290 1719 1389 110 13 420 5 535 -14z"/>
<path d="M3280 5316 c-204 -43 -321 -142 -350 -298 -13 -67 -42 -97 -126 -128
-164 -61 -204 -167 -154 -409 18 -88 91 -326 105 -339 3 -3 5 47 5 110 0 252
64 411 195 481 57 30 156 29 255 -3 96 -31 190 -30 320 3 l95 24 85 -47 c149
-82 343 -160 401 -160 21 0 25 -18 34 -155 6 -89 21 -204 31 -237 4 -13 0 -18
-14 -18 -14 0 -22 13 -35 58 -65 235 -397 268 -508 50 l-20 -39 -31 27 c-29
23 -39 26 -90 22 -43 -3 -65 -10 -80 -26 l-21 -21 -31 52 c-59 98 -177 151
-288 128 -108 -23 -187 -97 -213 -199 -10 -40 -16 -47 -39 -50 -35 -4 -37 -42
-2 -42 21 0 27 -8 40 -53 36 -125 137 -200 266 -199 144 0 244 85 270 230 15
85 27 110 63 129 66 34 131 -10 142 -95 21 -162 130 -264 280 -264 134 0 241
89 270 225 4 20 11 27 30 27 29 0 23 -17 84 254 36 156 56 225 70 239 19 19
19 20 0 76 -94 271 -279 491 -494 587 -140 62 -401 90 -545 60z m-75 -985
c125 -56 175 -226 99 -334 -44 -61 -100 -97 -165 -104 -82 -8 -136 11 -191 67
-114 118 -81 302 67 371 52 24 138 24 190 0z m781 -17 c94 -58 135 -196 86
-290 -63 -122 -194 -167 -313 -106 -90 45 -143 150 -125 245 14 72 93 161 162
180 10 3 47 5 80 3 49 -1 72 -8 110 -32z"/>
<path d="M2917 3673 c-24 -24 17 -130 76 -198 19 -22 61 -54 93 -70 50 -25 68
-29 143 -29 70 0 100 5 161 28 93 36 108 36 195 1 98 -40 215 -41 295 -4 71
34 126 89 158 157 55 120 20 161 -65 74 -73 -75 -132 -79 -223 -13 -23 16 -63
34 -90 40 -43 9 -57 8 -100 -9 -64 -25 -86 -25 -144 0 -67 30 -130 15 -215
-49 -64 -49 -170 -26 -216 47 -19 29 -52 42 -68 25z"/>
<path d="M3044 2951 c-32 -14 -72 -68 -85 -114 -8 -31 -9 -61 -1 -112 7 -45 8
-84 2 -110 -22 -96 -1 -177 60 -229 29 -24 39 -27 74 -22 77 13 258 125 313
195 19 24 28 27 75 26 53 0 54 -1 128 -76 83 -84 174 -136 258 -146 42 -5 52
-2 80 22 49 41 65 87 57 165 -8 71 -9 106 -4 220 3 62 0 82 -19 117 -32 62
-61 77 -125 69 -101 -14 -208 -81 -280 -174 -37 -49 -38 -50 -91 -48 -52 1
-54 2 -128 77 -108 109 -244 170 -314 140z"/>
<path d="M353 1480 c-22 -5 -61 -19 -85 -31 -136 -69 -200 -180 -199 -347 0
-85 17 -146 58 -205 33 -48 60 -46 88 5 l19 37 -25 24 c-57 52 -63 197 -12
297 37 73 97 114 191 130 120 22 217 -15 260 -100 62 -123 -8 -268 -144 -302
-63 -15 -72 -26 -55 -71 8 -20 17 -27 38 -27 40 -1 109 -34 127 -62 37 -58 32
-131 -14 -176 -34 -35 -74 -45 -124 -31 -69 19 -70 27 -76 357 -5 279 -6 294
-25 308 -11 8 -33 14 -49 12 l-28 -3 1 -292 c2 -321 9 -368 58 -415 79 -76
233 -76 316 0 96 86 76 287 -33 332 l-31 13 55 48 c77 69 101 123 100 224 0
127 -52 209 -163 258 -51 22 -181 31 -248 17z"/>
<path d="M3962 1469 c-190 -37 -352 -287 -352 -543 0 -182 72 -324 188 -373
90 -37 248 -8 328 61 35 30 38 36 29 61 -17 46 -40 54 -72 23 -71 -68 -198
-89 -264 -45 -67 45 -96 111 -106 239 -7 93 8 176 49 277 41 97 130 191 200
210 58 16 98 5 117 -34 43 -89 -108 -242 -231 -233 -44 3 -49 1 -55 -20 -3
-13 2 -33 12 -48 16 -25 21 -26 72 -21 107 11 239 101 284 193 38 79 26 179
-27 225 -41 35 -93 44 -172 28z"/>
<path d="M4290 1412 c-15 -16 -33 -46 -39 -68 -15 -53 -15 -635 0 -688 30
-110 160 -140 250 -59 l39 36 25 -27 c66 -72 191 -72 253 -2 24 28 33 31 82
31 30 0 64 3 75 8 18 6 23 1 34 -28 24 -66 102 -84 178 -40 34 20 43 23 43 11
0 -20 35 -38 63 -34 21 3 22 8 27 139 5 131 6 139 40 205 21 41 46 74 62 83
47 27 52 10 58 -187 3 -111 9 -185 17 -198 29 -51 118 -56 178 -9 27 20 36 22
42 12 30 -51 114 -59 172 -18 29 21 30 21 36 1 7 -21 45 -36 70 -26 12 4 15
27 15 113 0 152 22 224 88 295 29 31 57 36 66 12 3 -9 6 -92 6 -186 l0 -170
34 -34 c47 -47 117 -44 173 8 l21 20 31 -23 c38 -28 116 -31 154 -6 15 9 29
17 32 17 3 0 5 -27 5 -60 0 -58 -1 -60 -51 -107 -69 -65 -100 -120 -106 -193
-7 -70 7 -110 49 -145 58 -49 145 -25 179 48 15 34 19 66 19 175 l0 134 60 65
c91 100 150 232 120 269 -26 30 -50 12 -84 -67 -18 -42 -46 -93 -62 -114 l-29
-38 -3 186 c-2 176 -4 187 -23 197 -11 6 -32 10 -47 8 l-27 -3 3 -91 c5 -108
-10 -166 -50 -199 -24 -21 -32 -22 -59 -13 -40 14 -52 47 -46 128 9 135 99
230 217 230 36 0 40 3 40 25 0 42 -38 58 -106 46 -150 -28 -241 -143 -252
-319 -4 -73 -9 -90 -29 -110 -55 -55 -73 -7 -73 191 0 201 -11 226 -102 227
-39 0 -52 -5 -80 -32 -18 -18 -41 -44 -50 -58 l-17 -25 0 42 c-1 47 -22 67
-67 61 l-25 -3 -2 -155 c-2 -136 -5 -161 -24 -202 -24 -53 -64 -81 -86 -59 -8
8 -14 72 -17 207 -5 213 -7 217 -65 212 l-29 -3 3 -126 c2 -97 -1 -141 -14
-188 -25 -86 -77 -137 -102 -98 -4 6 -10 94 -13 194 -5 175 -6 182 -29 207
-19 21 -34 26 -71 26 -53 0 -80 -16 -121 -73 l-29 -40 0 66 c0 51 3 67 14 67
16 0 41 64 31 80 -4 6 -15 8 -26 5 -17 -6 -19 1 -21 107 l-3 113 -28 13 c-16
8 -39 11 -52 8 -21 -5 -23 -9 -15 -32 6 -14 10 -68 10 -120 l0 -94 -70 0 -70
0 0 118 c0 134 -8 152 -71 152 l-34 0 3 -135 4 -135 -66 0 c-63 0 -66 -1 -66
-23 0 -37 30 -57 83 -57 l47 0 0 -166 0 -166 -29 -29 c-17 -16 -40 -29 -54
-29 l-25 0 5 93 c7 118 -12 193 -59 232 -25 21 -38 25 -62 21 -107 -21 -114
-229 -12 -344 l21 -24 -28 -24 c-32 -27 -45 -29 -81 -13 -39 18 -61 73 -60
154 0 78 15 133 50 185 29 42 29 51 5 81 -18 22 -19 23 -46 5 -16 -10 -41 -48
-63 -93 -29 -63 -36 -89 -39 -157 -5 -97 -16 -128 -55 -161 -37 -31 -62 -32
-93 0 -38 37 -34 107 9 210 55 127 87 249 93 356 9 153 -23 219 -105 219 -35
0 -49 -6 -72 -28z m91 -74 c16 -30 6 -204 -17 -298 l-19 -75 -3 185 c-1 101 0
190 2 197 8 20 24 16 37 -9z m847 -383 c2 -75 -2 -153 -9 -185 -24 -115 -71
-166 -113 -124 -14 13 -16 48 -16 230 l0 215 68 -3 67 -3 3 -130z m-438 -11
c6 -14 10 -60 10 -102 0 -65 -2 -74 -14 -62 -29 32 -50 163 -29 183 12 13 24
7 33 -19z m1821 -767 c-14 -36 -48 -36 -57 -1 -12 48 2 122 32 166 l29 43 3
-91 c1 -50 -2 -103 -7 -117z"/>
<path d="M2714 1415 c3 -9 6 -68 6 -131 l0 -114 28 0 c50 0 53 7 50 136 l-3
119 -44 3 c-37 3 -43 1 -37 -13z"/>
<path d="M2453 1414 c-9 -4 -10 -11 -3 -25 6 -11 9 -79 8 -165 l-3 -147 -45
-16 c-133 -46 -210 -155 -210 -296 0 -82 -41 -146 -83 -129 -23 9 -27 37 -27
226 0 168 -1 178 -20 188 -12 6 -33 10 -47 8 l-26 -3 2 -127 c2 -95 -2 -142
-15 -187 -27 -97 -78 -136 -119 -91 -15 17 -17 31 -12 97 4 43 16 109 27 148
27 94 26 119 -6 144 -21 17 -41 21 -95 21 -41 0 -69 4 -69 10 0 22 -50 60 -78
60 -61 0 -83 -70 -36 -117 26 -26 27 -28 20 -121 -11 -164 -65 -276 -124 -258
-36 12 -44 61 -27 157 8 46 21 107 30 134 20 68 19 82 -10 110 -21 22 -33 25
-90 25 -63 0 -68 2 -99 35 -38 40 -75 46 -106 15 -28 -28 -25 -54 11 -94 l31
-35 -10 -99 c-19 -187 -84 -269 -196 -248 -32 6 -86 48 -86 67 0 5 17 18 39
28 113 58 174 199 126 291 -19 37 -43 50 -95 50 -74 0 -122 -38 -165 -132 -60
-130 -25 -288 77 -351 94 -58 209 -45 288 32 56 54 73 99 91 251 l12 100 55 0
c44 0 53 -3 48 -15 -35 -92 -51 -168 -51 -247 0 -84 1 -89 30 -118 33 -33 85
-47 130 -36 40 10 101 71 124 127 26 59 51 181 51 245 l0 44 55 0 c30 0 55 -4
55 -8 0 -5 -9 -35 -20 -67 -11 -32 -25 -95 -32 -140 -14 -101 -1 -147 52 -183
46 -31 114 -27 162 10 l34 26 32 -29 c47 -42 116 -36 169 13 l22 21 31 -26
c53 -45 141 -48 193 -7 24 19 25 19 42 0 21 -24 72 -34 115 -25 46 10 104 73
129 141 26 69 18 104 -23 104 -21 0 -27 -7 -36 -42 -17 -70 -38 -108 -66 -120
-23 -11 -29 -10 -45 11 -18 22 -19 46 -19 381 0 287 -3 360 -13 369 -17 13
-67 22 -84 15z m-1433 -449 c14 -38 -15 -117 -56 -155 l-39 -35 -3 39 c-4 46
13 121 34 154 18 28 54 26 64 -3z m1440 -129 l0 -154 -31 -26 c-38 -32 -60
-33 -96 -2 -27 23 -28 28 -28 118 0 86 2 98 27 136 26 38 85 80 116 82 9 0 12
-37 12 -154z"/>
<path d="M2015 1315 c-48 -48 -16 -125 51 -125 67 0 100 88 48 129 -35 28 -69
26 -99 -4z"/>
<path d="M5716 1319 c-53 -42 -19 -129 50 -129 67 0 100 88 48 129 -15 12 -37
21 -49 21 -12 0 -34 -9 -49 -21z"/>
<path d="M2999 1091 c-39 -39 -47 -67 -29 -101 7 -13 2 -41 -20 -106 -34 -98
-37 -126 -15 -144 29 -24 48 -7 72 65 13 39 25 76 28 84 4 11 11 8 31 -10 59
-55 83 -153 50 -203 -18 -29 -28 -27 -145 23 -83 35 -101 31 -101 -24 0 -45
39 -89 97 -109 65 -22 113 -20 164 8 25 12 66 26 91 30 61 9 136 60 161 109
18 35 18 39 3 62 -23 36 -43 31 -66 -15 -18 -35 -70 -80 -92 -80 -5 0 -8 20
-8 45 0 59 -19 102 -81 187 -51 68 -52 70 -40 107 33 110 -23 150 -100 72z"/>
</g>
</svg>
