<?xml version="1.0" standalone="no"?>
<!DOCTYPE svg PUBLIC "-//W3C//DTD SVG 20010904//EN"
 "http://www.w3.org/TR/2001/REC-SVG-20010904/DTD/svg10.dtd">
<svg version="1.0" xmlns="http://www.w3.org/2000/svg"
 width="684.000000pt" height="146.000000pt" viewBox="0 0 684.000000 146.000000"
 preserveAspectRatio="xMidYMid meet">

<g transform="translate(0.000000,146.000000) scale(0.100000,-0.100000)"
fill="#000000" stroke="none">
<path d="M280 1414 c-75 -20 -130 -54 -183 -114 -64 -71 -82 -130 -82 -260 1
-113 19 -172 69 -219 28 -27 48 -20 72 24 18 34 18 35 -3 57 -38 42 -47 71
-47 148 0 177 110 284 289 283 99 0 158 -36 196 -118 26 -56 24 -111 -7 -174
-29 -58 -88 -104 -148 -115 -48 -9 -62 -28 -46 -66 9 -21 19 -30 36 -30 34 0
113 -39 129 -64 57 -86 -5 -209 -103 -208 -52 1 -80 16 -93 50 -6 15 -14 153
-19 307 -4 154 -11 287 -15 297 -6 16 -34 28 -68 28 -18 0 -19 -14 -15 -307 3
-305 3 -308 28 -358 35 -71 90 -100 186 -100 61 0 77 4 120 30 65 40 94 96 94
180 0 79 -30 142 -82 170 l-37 21 48 42 c72 61 101 126 101 226 0 64 -5 92
-24 132 -27 58 -97 118 -155 133 -72 19 -184 21 -241 5z"/>
<path d="M3935 1414 c-76 -16 -114 -32 -165 -70 -76 -56 -148 -163 -186 -280
-39 -118 -41 -273 -6 -374 28 -82 84 -156 142 -187 40 -22 55 -24 131 -21 72
3 97 9 151 36 87 43 104 62 88 101 -17 43 -31 43 -86 5 -65 -45 -146 -63 -205
-45 -89 27 -135 110 -145 261 -15 228 131 476 284 483 100 4 116 -99 29 -187
-52 -52 -105 -77 -177 -85 -53 -6 -55 -7 -53 -34 1 -16 8 -36 15 -44 29 -35
183 14 271 88 123 101 132 279 17 337 -43 21 -63 24 -105 16z"/>
<path d="M4253 1370 c-12 -5 -32 -28 -45 -52 -22 -41 -23 -55 -26 -308 -2
-146 -1 -302 3 -348 6 -73 11 -88 36 -117 58 -66 135 -69 214 -9 l46 35 41
-35 c70 -60 161 -58 233 5 28 25 44 30 108 35 69 6 75 5 81 -13 4 -11 18 -31
32 -44 31 -29 101 -32 151 -6 31 17 33 17 53 -3 22 -22 55 -26 66 -9 4 7 11
69 15 139 6 109 11 135 34 181 29 58 71 109 91 109 20 0 25 -30 35 -204 4 -92
11 -177 15 -188 6 -20 59 -48 92 -48 10 0 42 12 71 26 l52 26 22 -20 c35 -32
79 -36 132 -13 l46 21 30 -22 c23 -17 34 -20 47 -12 14 9 18 33 23 130 3 71
12 140 23 170 18 54 82 134 108 134 24 0 28 -31 28 -212 l0 -166 31 -26 c54
-46 106 -46 166 0 l32 24 33 -20 c40 -24 116 -27 158 -5 l30 16 0 -56 c0 -53
-2 -58 -54 -114 -67 -73 -96 -128 -103 -195 -18 -177 193 -231 236 -61 6 24
11 97 11 162 l0 119 36 35 c84 81 171 250 147 288 -23 37 -46 18 -103 -88 -30
-58 -61 -106 -67 -108 -9 -3 -13 46 -15 176 -2 98 -6 182 -9 186 -4 3 -23 9
-43 12 l-36 6 0 -89 c-1 -148 -27 -216 -87 -222 -63 -6 -88 68 -61 176 25 102
91 165 188 179 41 6 56 13 58 26 11 56 -89 65 -187 16 -100 -50 -152 -137
-167 -279 -8 -78 -22 -118 -46 -131 -42 -22 -57 33 -58 206 0 183 -20 225
-104 225 -34 0 -46 -7 -93 -53 l-53 -54 0 33 c0 40 -22 64 -59 64 l-28 0 -6
-157 c-6 -169 -13 -202 -55 -245 -27 -29 -46 -35 -57 -18 -4 6 -10 96 -15 200
-8 205 -12 220 -61 220 l-29 0 0 -125 c0 -176 -24 -262 -82 -299 -32 -20 -39
6 -47 191 -9 182 -16 214 -51 233 -52 28 -121 3 -169 -62 l-31 -42 0 57 c0 44
6 64 25 93 29 43 29 69 0 69 -19 0 -20 8 -23 108 l-3 108 -36 15 c-58 25 -61
20 -55 -115 l5 -121 -72 0 -71 0 0 108 c0 131 -10 156 -63 160 l-37 3 0 -135
0 -135 -62 -3 c-59 -3 -63 -4 -63 -28 0 -30 34 -50 88 -50 l37 0 -2 -172 -3
-172 -34 -23 c-63 -43 -67 -38 -66 95 0 101 -3 122 -22 158 -28 52 -47 67 -85
67 -43 0 -84 -47 -93 -106 -10 -65 11 -149 52 -209 l35 -53 -27 -22 c-32 -28
-55 -29 -87 -3 -40 31 -51 70 -46 168 3 75 9 96 37 149 32 59 32 62 16 87 -10
14 -19 26 -22 26 -29 0 -88 -84 -112 -160 -6 -19 -15 -75 -20 -124 -11 -98
-26 -128 -72 -152 -26 -13 -36 -14 -54 -4 -53 28 -57 91 -14 210 104 288 125
480 61 560 -20 24 -84 35 -119 20z m68 -97 c18 -46 -9 -324 -32 -339 -10 -6
-13 325 -3 350 9 24 23 19 35 -11z m843 -403 c0 -171 -15 -238 -59 -280 -28
-27 -51 -21 -65 15 -6 15 -10 116 -10 226 l0 200 68 -3 67 -3 -1 -155z m-433
9 c10 -35 10 -159 1 -159 -23 0 -53 137 -38 175 8 23 29 14 37 -16z m1827
-664 c-2 -72 -7 -98 -20 -111 -15 -15 -19 -15 -34 -3 -13 11 -15 25 -11 71 5
55 41 138 60 138 5 0 7 -42 5 -95z"/>
<path d="M2658 1363 c-1 -4 -2 -63 0 -130 l3 -123 29 0 c43 0 51 25 48 147
l-3 108 -37 3 c-20 2 -38 -1 -40 -5z"/>
<path d="M2399 1353 c-1 -5 -1 -78 0 -163 1 -85 -2 -160 -6 -166 -4 -5 -29
-18 -55 -28 -61 -23 -133 -87 -163 -147 -16 -30 -28 -78 -34 -133 -13 -114
-51 -170 -90 -131 -13 13 -17 48 -19 198 -2 170 -4 183 -23 200 -12 9 -31 17
-44 17 -23 0 -23 -2 -28 -147 -5 -162 -15 -207 -53 -253 -30 -36 -47 -37 -75
-9 -19 19 -21 29 -16 88 4 36 16 107 29 158 32 134 13 163 -107 163 -46 0 -57
4 -70 23 -16 25 -55 47 -80 47 -21 0 -55 -36 -55 -59 0 -10 12 -36 26 -57 25
-36 26 -43 20 -122 -9 -103 -38 -200 -70 -235 -29 -31 -48 -34 -72 -10 -14 14
-16 30 -11 97 3 45 15 119 27 165 18 68 20 88 10 106 -16 30 -51 45 -107 45
-37 0 -57 7 -99 36 -59 41 -91 41 -113 1 -14 -27 -6 -53 31 -94 18 -19 20 -30
13 -90 -8 -83 -23 -148 -43 -188 -48 -98 -136 -123 -211 -59 -38 32 -39 40 -1
59 112 58 174 184 139 284 -29 82 -160 80 -223 -2 -71 -93 -87 -232 -38 -327
35 -69 83 -107 155 -122 48 -10 64 -9 109 5 61 19 117 67 147 125 12 23 28 90
38 161 l17 121 47 0 c25 0 48 -3 52 -6 3 -3 -3 -31 -14 -61 -25 -72 -37 -179
-29 -245 8 -59 39 -93 95 -104 53 -10 82 2 131 52 53 55 90 159 100 284 l7 80
47 0 c26 0 49 -3 53 -6 3 -3 -1 -27 -9 -52 -26 -87 -46 -213 -39 -253 8 -49
53 -96 100 -105 39 -7 92 8 128 36 22 18 26 18 38 4 42 -51 115 -54 176 -8 31
24 36 25 51 10 25 -22 87 -46 120 -46 15 0 45 9 67 20 l39 20 43 -21 c62 -30
110 -20 161 35 70 76 96 191 43 191 -20 0 -28 -11 -52 -68 -40 -101 -79 -123
-105 -62 -11 28 -14 97 -14 353 0 176 -3 333 -6 350 -5 23 -14 34 -37 41 -36
13 -47 14 -48 4z m-1451 -435 c28 -28 3 -120 -45 -170 -40 -42 -47 -36 -40 35
8 89 33 141 68 146 3 1 10 -4 17 -11z m1446 -4 c3 -9 6 -78 6 -154 0 -137 0
-139 -26 -159 -41 -32 -61 -34 -94 -11 -30 21 -30 21 -30 123 0 100 1 103 32
141 28 34 83 76 99 76 4 0 10 -7 13 -16z"/>
<path d="M1959 1251 c-16 -16 -29 -39 -29 -51 0 -29 44 -70 75 -70 14 0 37 11
50 25 39 38 32 86 -16 110 -39 21 -46 19 -80 -14z"/>
<path d="M5656 1255 c-15 -14 -26 -35 -26 -50 0 -33 42 -75 75 -75 14 0 37 11
50 25 39 38 32 86 -16 110 -39 20 -52 19 -83 -10z"/>
<path d="M2968 1055 c-43 -24 -70 -76 -62 -122 4 -28 -2 -63 -21 -125 -29 -93
-29 -115 -3 -131 26 -17 45 6 70 84 26 81 38 84 81 23 34 -48 45 -111 27 -154
-16 -38 -30 -38 -130 1 -90 34 -113 34 -118 0 -9 -61 43 -115 130 -133 49 -10
60 -8 162 26 60 20 118 42 130 48 32 16 76 60 93 91 13 25 13 31 -2 53 -8 13
-18 24 -22 24 -3 0 -31 -27 -62 -60 -31 -33 -62 -60 -69 -60 -7 0 -12 16 -12
43 0 51 -23 104 -85 193 -25 37 -43 74 -40 82 13 35 16 91 6 111 -13 24 -35
26 -73 6z"/>
</g>
</svg>
